<svg width="51" height="51" viewBox="0 0 51 51" fill="none" xmlns="http://www.w3.org/2000/svg">
<circle cx="25.5" cy="25.5" r="25.5" fill="white"/>
<path d="M38.9228 16.238C31.1667 13.4941 22.7362 13.2674 14.8425 15.5906C14.5287 15.6654 14.2333 15.8022 13.9739 15.9931C13.7144 16.1839 13.4963 16.4249 13.3325 16.7015C13.1687 16.9781 13.0626 17.2847 13.0205 17.603C12.9784 17.9213 13.0012 18.2448 13.0876 18.5542C13.5196 20.2796 14.1498 22.262 14.9067 24.0594C14.9197 24.1014 14.94 24.0812 14.94 24.0392C14.8303 23.1963 15.4816 22.1319 16.7591 21.7448C22.8981 19.8005 29.5048 19.8876 35.59 21.9929C35.8144 22.0693 36.052 22.1002 36.2886 22.0838C36.5253 22.0674 36.7562 22.004 36.9678 21.8973C37.1795 21.7907 37.3675 21.6429 37.5208 21.4628C37.6741 21.2827 37.7897 21.0738 37.8606 20.8486C38.6175 18.4241 38.9228 16.7778 38.9984 16.3657C39.0114 16.2889 38.9431 16.259 38.9228 16.238ZM20.2097 21.5719C19.2798 21.765 17.9943 22.0689 17.0295 22.3873C15.1007 23.0492 15.1901 25.3848 16.2174 26.1299C16.2929 25.6968 16.7591 25.1076 17.2788 24.9088C19.2043 24.1556 21.2719 23.7054 23.3622 23.5196C22.3 23.0904 21.2638 22.4754 20.2235 21.5711L20.2097 21.5719ZM35.564 26.2479C32.793 24.9523 29.7892 24.2226 26.73 24.1019C23.6708 23.9813 20.6184 24.4722 17.7531 25.5456C16.8346 25.8907 16.2596 27.0027 16.8346 28.0582C17.839 29.8654 18.9789 31.5946 20.2446 33.2313C20.0627 32.6041 20.3843 31.4428 21.6187 31.063C25.0327 30.0188 28.6149 30.4617 30.996 31.421C31.6684 31.6901 32.6201 31.5269 33.1537 30.7316C34.0636 29.3368 34.8912 27.8904 35.6322 26.3999C35.6655 26.3328 35.6322 26.2827 35.564 26.2479ZM30.032 34.6205C29.0333 34.1187 28.1199 33.4639 27.3253 32.6801C26.9574 32.314 26.4157 31.7879 25.8448 31.1608C24.5414 31.1608 23.2761 31.2909 21.9232 31.7208C20.6669 32.112 20.5491 33.5562 21.0989 34.3094C22.0288 35.4626 22.6809 36.0849 23.7212 37.1549C24.2725 37.6931 25.0128 37.9962 25.7851 38C26.5573 38.0037 27.3006 37.7079 27.8572 37.1751C28.6693 36.367 29.1687 35.8279 30.0864 34.7927C30.1408 34.7377 30.1205 34.6415 30.032 34.6205Z" fill="black"/>
</svg>
