<svg width="51" height="51" viewBox="0 0 51 51" fill="none" xmlns="http://www.w3.org/2000/svg">
<circle cx="25.5" cy="25.5" r="25.5" fill="white"/>
<path d="M22.4 39C21.68 39 21.2 38.52 21.2 37.8V34.2H16.4C15.08 34.2 14 33.12 14 31.8V17.4C14 16.08 15.08 15 16.4 15H35.6C36.92 15 38 16.08 38 17.4V31.8C38 33.12 36.92 34.2 35.6 34.2H28.28L23.84 38.64C23.6 38.88 23.36 39 23 39H22.4ZM23.6 31.8V35.52L27.32 31.8H35.6V17.4H16.4V31.8H23.6ZM31.16 19.8L29.48 23.4H32V28.2H27.2V23.16L28.76 19.8H31.16ZM23.96 19.8L22.28 23.4H24.8V28.2H20V23.16L21.56 19.8H23.96Z" fill="black"/>
</svg>
