<svg width="51" height="51" viewBox="0 0 51 51" fill="none" xmlns="http://www.w3.org/2000/svg">
<circle cx="25.5" cy="25.5" r="25.5" fill="white"/>
<path d="M33.1063 18.6866C34.333 19.9328 35.227 21.4615 35.7079 23.1348H39V28.8614H35.7079C35.2276 30.5361 34.3335 32.0661 33.1063 33.3134L34.7552 36.1376L29.7448 39L28.0997 36.1758C26.3939 36.6015 24.608 36.6015 22.9022 36.1758L21.2552 39L16.2448 36.1376L17.8937 33.3134C16.6665 32.0661 15.7724 30.5361 15.2921 28.8614H12V23.1367H15.2921C15.7724 21.462 16.6665 19.932 17.8937 18.6847L16.2429 15.8624L21.2514 13H21.2571L22.9041 15.8204C24.6099 15.3947 26.3959 15.3947 28.1016 15.8204L29.7429 13H29.7467L34.7571 15.8624L33.1082 18.6866H33.1063ZM31.2857 25.999C31.2857 24.4807 30.6762 23.0246 29.5911 21.951C28.5061 20.8774 27.0345 20.2743 25.5 20.2743C23.9655 20.2743 22.4939 20.8774 21.4089 21.951C20.3239 23.0246 19.7143 24.4807 19.7143 25.999C19.7143 27.5173 20.3239 28.9735 21.4089 30.0471C22.4939 31.1207 23.9655 31.7238 25.5 31.7238C27.0345 31.7238 28.5061 31.1207 29.5911 30.0471C30.6762 28.9735 31.2857 27.5173 31.2857 25.999Z" fill="black"/>
</svg>
