<svg width="373" height="74" viewBox="0 0 373 74" fill="none" xmlns="http://www.w3.org/2000/svg">
<g clip-path="url(#clip0_191_202)">
<path d="M73.8336 37C73.8336 57.4381 57.3035 74 36.917 74C36.4391 74 35.9557 73.989 35.4832 73.9725C34.434 73.9339 33.4012 73.8458 32.3794 73.7247C26.9847 73.0585 21.9527 71.2305 17.5359 68.4941C15.7999 67.4204 14.1573 66.2036 12.6301 64.8656C10.5151 63.0156 8.61435 60.9234 6.96629 58.6384C6.96629 58.6384 6.9608 58.6274 6.9553 58.6219C5.38415 56.4415 4.04922 54.085 2.97798 51.5853C2.77472 51.1118 2.58245 50.6327 2.40116 50.1537C2.40116 50.1482 2.39567 50.1372 2.39018 50.1317C1.13765 46.8391 0.346581 43.3208 0.0938784 39.6594C0.0334495 38.7839 0.000488281 37.8975 0.000488281 37C0.000488281 16.5674 16.5305 0 36.917 0C47.8986 0 57.754 4.8067 64.5166 12.4269C65.5988 13.6438 66.5986 14.9321 67.5105 16.2866C68.3126 17.4704 69.0487 18.7092 69.708 19.9921C69.7904 20.1463 69.8673 20.306 69.9497 20.4656C70.5814 21.732 71.1418 23.0369 71.6307 24.3749C71.6801 24.518 71.7351 24.6612 71.7845 24.8098C72.636 27.249 73.2348 29.8037 73.5589 32.4466C73.6853 33.4707 73.7677 34.5113 73.8116 35.5574C73.8281 36.0365 73.8391 36.5155 73.8391 36.9945L73.8336 37Z" fill="#002642"/>
<path d="M73.8333 37.0002C73.8333 57.4383 57.3033 74.0002 36.9168 74.0002C36.4388 74.0002 35.9554 73.9892 35.4829 73.9726C34.4337 73.9341 33.4009 73.846 32.3791 73.7249C26.9844 73.0586 21.9524 71.2307 17.5356 68.4942C15.7996 67.4206 14.157 66.2037 12.6298 64.8658C10.5148 63.0158 8.61407 60.9235 6.96601 58.6386C6.96601 58.6386 6.96051 58.6276 6.95502 58.622C5.38387 56.4417 4.04894 54.0851 2.9777 51.5854C2.77444 51.1119 2.58217 50.6329 2.40088 50.1539L13.767 38.7621C14.4207 38.1069 15.1569 37.5783 15.9369 37.1764C19.2111 35.486 23.3312 36.0146 26.078 38.7621L32.3791 45.0774C35.7796 48.4801 41.2896 48.4801 44.6901 45.0774L73.0642 16.6392C73.1246 16.8154 73.1906 16.9915 73.251 17.1677L69.9549 20.4713C70.5866 21.7377 71.147 23.0426 71.6359 24.3805C71.6853 24.5237 71.7403 24.6668 71.7897 24.8155C72.6412 27.2546 73.24 29.8094 73.5641 32.4523C73.6905 33.4764 73.7729 34.517 73.8168 35.5631C73.8333 36.0421 73.8443 36.5212 73.8443 37.0002H73.8333Z" fill="url(#paint0_linear_191_202)"/>
<path style="mix-blend-mode:multiply" d="M73.8336 37.0002C73.8336 57.4383 57.3036 74.0002 36.9171 74.0002C36.4391 74.0002 35.9557 73.9892 35.4832 73.9727C34.434 73.9341 33.4012 73.846 32.3794 73.7249L73.5589 32.4468C73.6853 33.4709 73.7677 34.5115 73.8116 35.5576C73.8281 36.0367 73.8391 36.5157 73.8391 36.9947L73.8336 37.0002Z" fill="url(#paint1_linear_191_202)"/>
<path style="mix-blend-mode:multiply" d="M32.3791 45.0717L31.8682 45.5838L12.6298 64.8656C10.5148 63.0156 8.61407 60.9234 6.96601 58.6384C6.96601 58.6384 6.96051 58.6274 6.95502 58.6219C5.38387 56.4415 4.04894 54.085 2.9777 51.5853C2.77444 51.1118 2.58217 50.6327 2.40088 50.1537L13.767 38.7619C14.4207 38.1067 15.1569 37.5781 15.9369 37.1762C19.2111 35.4859 23.3312 36.0144 26.078 38.7619L32.3791 45.0772V45.0717Z" fill="url(#paint2_linear_191_202)"/>
<path d="M83.5624 0.0825195L81.4034 8.14874L79.2445 16.215L76.723 13.6877L72.9214 17.4978L45.0802 45.402C41.4435 49.0415 35.5874 49.1075 31.8682 45.5892C31.8078 45.5287 31.7419 45.4681 31.676 45.402L24.9574 38.6903C22.5127 36.2511 18.876 35.7446 15.937 37.1761C15.1679 37.5505 14.4482 38.0571 13.8055 38.6958L2.39542 50.1316C1.14289 46.8391 0.351824 43.3208 0.0991211 39.6593L12.5859 27.9316C16.0578 24.0775 22.0458 23.9233 25.71 27.5958L38.3616 38.6517L68.8892 8.04413L69.9879 6.94294L67.4554 4.40469L71.4492 3.33103L75.5144 2.24085L83.5624 0.0880255V0.0825195Z" fill="url(#paint3_linear_191_202)"/>
<path d="M94 30.0953H110.728V35.5737H94V30.0953ZM105.635 56.6395H99.0925V21.8198H105.635V56.6395Z" fill="white"/>
<path d="M119.248 56.6394H112.706V16.6606H119.298V33.5309C120.122 32.2425 121.27 31.2129 122.753 30.442C124.236 29.6712 125.945 29.2858 127.873 29.2858C131.125 29.2858 133.603 30.2714 135.3 32.2425C136.998 34.2136 137.849 36.9005 137.849 40.3032V56.6394H131.307V41.8614C131.307 40.3583 131.076 39.1194 130.609 38.1559C130.142 37.1868 129.499 36.4656 128.681 35.981C127.857 35.4965 126.895 35.2542 125.786 35.2542C124.429 35.2542 123.259 35.5516 122.275 36.1407C121.292 36.7298 120.539 37.5447 120.023 38.5853C119.507 39.626 119.248 40.8042 119.248 42.1312V56.6394Z" fill="white"/>
<path d="M153.989 57.339C151.38 57.339 149.067 56.7388 147.045 55.5385C145.024 54.3382 143.442 52.6919 142.299 50.5942C141.156 48.4964 140.585 46.0903 140.585 43.3649C140.585 40.6394 141.14 38.1727 142.25 36.0585C143.359 33.9442 144.914 32.2869 146.914 31.0866C148.913 29.8863 151.204 29.2861 153.775 29.2861C156.346 29.2861 158.763 29.8477 160.691 30.9765C162.62 32.1052 164.114 33.6744 165.169 35.6785C166.223 37.6827 166.751 40.0833 166.751 42.8803V44.868L144.018 44.923L144.128 40.733H160.268C160.268 38.905 159.686 37.4405 158.527 36.3282C157.362 35.216 155.802 34.6599 153.835 34.6599C152.297 34.6599 151.001 34.9848 149.946 35.629C148.891 36.2732 148.095 37.2422 147.562 38.5306C147.029 39.819 146.76 41.3992 146.76 43.2602C146.76 46.1288 147.375 48.2927 148.611 49.7628C149.842 51.2329 151.676 51.9652 154.105 51.9652C155.89 51.9652 157.368 51.6238 158.527 50.9466C159.686 50.2693 160.45 49.3003 160.807 48.0449H166.866C166.295 50.9466 164.872 53.2205 162.603 54.8668C160.334 56.5131 157.467 57.339 154 57.339H153.989Z" fill="white"/>
<path d="M177.688 17.36V56.6395H170.827V17.36H177.688ZM186.373 39.9289H175.595V34.1256H185.994C187.89 34.1256 189.334 33.6521 190.34 32.6996C191.34 31.7526 191.839 30.3981 191.839 28.6417C191.839 26.8853 191.323 25.6685 190.285 24.771C189.246 23.8735 187.747 23.4276 185.78 23.4276H175.381V17.3545H186.373C190.268 17.3545 193.323 18.3015 195.542 20.2011C197.756 22.1006 198.866 24.6994 198.866 27.992C198.866 30.354 198.294 32.3362 197.152 33.9274C196.009 35.5241 194.312 36.6749 192.059 37.3907V36.6363C194.487 37.209 196.328 38.2826 197.58 39.8628C198.833 41.4375 199.459 43.4802 199.459 45.9909C199.459 48.2098 198.959 50.1204 197.959 51.7116C196.959 53.3084 195.504 54.5252 193.592 55.3676C191.68 56.21 189.384 56.6285 186.703 56.6285H175.392V50.5554H186.384C188.351 50.5554 189.851 50.0874 190.889 49.1569C191.927 48.2264 192.444 46.8829 192.444 45.1265C192.444 43.4802 191.916 42.1973 190.862 41.2834C189.807 40.3694 188.313 39.9124 186.384 39.9124L186.373 39.9289Z" fill="white"/>
<path d="M219.236 29.9851V36.0582H216.825C214.429 36.0582 212.551 36.6969 211.194 37.9633C209.837 39.2351 209.156 41.1622 209.156 43.739V56.634H202.613V30.1448H208.777L209.315 35.6232H208.672C209.029 33.8668 209.87 32.4353 211.194 31.3231C212.518 30.2109 214.232 29.6548 216.341 29.6548C216.803 29.6548 217.27 29.6713 217.736 29.7098C218.198 29.7484 218.703 29.8365 219.236 29.9796V29.9851Z" fill="white"/>
<path d="M232.481 57.339C229.871 57.339 227.559 56.7388 225.537 55.5385C223.515 54.3382 221.933 52.6919 220.791 50.5942C219.648 48.4964 219.077 46.0903 219.077 43.3649C219.077 40.6394 219.632 38.1727 220.741 36.0585C221.851 33.9442 223.406 32.2869 225.405 31.0866C227.405 29.8863 229.696 29.2861 232.267 29.2861C234.838 29.2861 237.255 29.8477 239.183 30.9765C241.111 32.1052 242.605 33.6744 243.66 35.6785C244.715 37.6827 245.242 40.0833 245.242 42.8803V44.868L222.51 44.923L222.62 40.733H238.76C238.76 38.905 238.178 37.4405 237.019 36.3282C235.854 35.216 234.294 34.6599 232.327 34.6599C230.789 34.6599 229.492 34.9848 228.438 35.629C227.383 36.2732 226.586 37.2422 226.053 38.5306C225.521 39.819 225.251 41.3992 225.251 43.2602C225.251 46.1288 225.867 48.2927 227.103 49.7628C228.333 51.2329 230.168 51.9652 232.596 51.9652C234.382 51.9652 235.859 51.6238 237.019 50.9466C238.178 50.2693 238.941 49.3003 239.298 48.0449H245.358C244.786 50.9466 243.364 53.2205 241.095 54.8668C238.826 56.5131 235.958 57.339 232.492 57.339H232.481Z" fill="white"/>
<path d="M255.96 57.339C253.175 57.339 250.967 56.5791 249.34 55.054C247.714 53.5343 246.901 51.5357 246.901 49.0635C246.901 46.5913 247.747 44.6863 249.45 43.2327C251.148 41.7846 253.571 40.9312 256.713 40.6779L264.645 40.0338V39.4446C264.645 38.2278 264.42 37.2532 263.975 36.5154C263.53 35.7832 262.893 35.2436 262.075 34.9022C261.25 34.5608 260.289 34.3902 259.179 34.3902C257.251 34.3902 255.768 34.7756 254.73 35.5464C253.691 36.3172 253.175 37.4019 253.175 38.7949H247.599C247.599 36.8623 248.088 35.1885 249.071 33.7735C250.055 32.3585 251.45 31.2573 253.252 30.4699C255.054 29.6826 257.141 29.2861 259.498 29.2861C261.855 29.2861 263.948 29.7101 265.662 30.547C267.376 31.3894 268.7 32.6448 269.628 34.3076C270.557 35.9759 271.023 38.0406 271.023 40.5128V56.6342H265.288L264.805 52.714C264.233 54.0739 263.135 55.1861 261.509 56.0451C259.883 56.904 258.031 57.3335 255.96 57.3335V57.339ZM258.053 52.3946C260.091 52.3946 261.706 51.822 262.904 50.6768C264.102 49.5315 264.7 47.9348 264.7 45.8921V44.4936L259.179 44.923C257.141 45.1047 255.697 45.5232 254.84 46.1839C253.983 46.8446 253.554 47.7146 253.554 48.7882C253.554 49.972 253.944 50.864 254.735 51.4751C255.521 52.0863 256.63 52.3891 258.059 52.3891L258.053 52.3946Z" fill="white"/>
<path d="M281.906 56.6394H275.418V16.6606H281.906V41.2172L292.201 30.0952H300.403L290.322 40.6281L300.189 56.6394H292.685L285.768 45.4623L281.906 49.4926V56.6394Z" fill="white"/>
<path d="M299.277 43.3148C299.277 40.5563 299.887 38.1282 301.101 36.0359C302.315 33.9382 303.996 32.3029 306.138 31.1191C308.281 29.9353 310.714 29.3462 313.428 29.3462C316.142 29.3462 318.62 29.9353 320.746 31.1191C322.872 32.3029 324.542 33.9382 325.756 36.0359C326.97 38.1337 327.58 40.5563 327.58 43.3148C327.58 46.0733 326.97 48.5014 325.756 50.5937C324.542 52.6914 322.872 54.3267 320.746 55.5105C318.62 56.6943 316.18 57.2834 313.428 57.2834C310.676 57.2834 308.281 56.6943 306.138 55.5105C303.996 54.3267 302.315 52.6914 301.101 50.5937C299.887 48.4959 299.277 46.0733 299.277 43.3148ZM305.82 43.3148C305.82 44.928 306.149 46.3431 306.814 47.5599C307.473 48.7767 308.369 49.7292 309.495 50.4065C310.621 51.0892 311.934 51.4251 313.434 51.4251C314.933 51.4251 316.257 51.0837 317.4 50.4065C318.543 49.7237 319.438 48.7767 320.081 47.5599C320.724 46.3431 321.048 44.928 321.048 43.3148C321.048 41.7015 320.724 40.2425 320.081 39.0422C319.438 37.8419 318.543 36.9004 317.4 36.2231C316.257 35.5404 314.933 35.2045 313.434 35.2045C311.934 35.2045 310.621 35.5459 309.495 36.2231C308.369 36.9059 307.473 37.8419 306.814 39.0422C306.155 40.2425 305.82 41.6685 305.82 43.3148Z" fill="white"/>
<path d="M347.961 30.0952H354.503V56.6394H348.444L347.961 53.0936C347.175 54.3489 345.994 55.3675 344.423 56.1549C342.852 56.9422 341.171 57.3387 339.385 57.3387C336.347 57.3387 333.969 56.3696 332.255 54.437C330.541 52.5044 329.684 49.9222 329.684 46.7012V30.0952H336.226V44.3887C336.226 46.8939 336.71 48.7053 337.677 49.8175C338.644 50.9297 340.033 51.4858 341.857 51.4858C343.928 51.4858 345.467 50.8692 346.466 49.6303C347.466 48.397 347.966 46.525 347.966 44.0143V30.0952H347.961Z" fill="white"/>
<path d="M356.486 30.0953H373.214V35.5737H356.486V30.0953ZM368.116 56.6395H361.573V21.8198H368.116V56.6395Z" fill="white"/>
</g>
<defs>
<linearGradient id="paint0_linear_191_202" x1="27.0559" y1="62.3275" x2="69.7379" y2="19.7418" gradientUnits="userSpaceOnUse">
<stop stop-color="#00579D"/>
<stop offset="0.36" stop-color="#0082D9"/>
<stop offset="1" stop-color="#00D9D7"/>
</linearGradient>
<linearGradient id="paint1_linear_191_202" x1="53.1065" y1="45.3692" x2="53.1065" y2="69.1054" gradientUnits="userSpaceOnUse">
<stop stop-color="#00579D"/>
<stop offset="1" stop-color="white"/>
</linearGradient>
<linearGradient id="paint2_linear_191_202" x1="19.7989" y1="66.9083" x2="17.4648" y2="48.283" gradientUnits="userSpaceOnUse">
<stop stop-color="#00579D"/>
<stop offset="1" stop-color="white"/>
</linearGradient>
<linearGradient id="paint3_linear_191_202" x1="44.9374" y1="20.5426" x2="4.25171" y2="77.3763" gradientUnits="userSpaceOnUse">
<stop stop-color="#088ADC"/>
<stop offset="0.46" stop-color="#003D66"/>
<stop offset="1" stop-color="#002642"/>
</linearGradient>
<clipPath id="clip0_191_202">
<rect width="373" height="74" fill="white"/>
</clipPath>
</defs>
</svg>
