<svg width="103" height="98" viewBox="0 0 103 98" fill="none" xmlns="http://www.w3.org/2000/svg">
<g filter="url(#filter0_bi_153_489)">
<rect width="103" height="98" rx="10" fill="#009CFF"/>
<rect x="0.25" y="0.25" width="102.5" height="97.5" rx="9.75" stroke="white" stroke-opacity="0.3" stroke-width="0.5"/>
</g>
<g clip-path="url(#clip0_153_489)">
<path d="M27.9203 51.5882C27.6237 51.5882 27.3392 51.4244 27.1976 51.1411C26.0454 48.8302 25.46 46.34 25.46 43.7391C25.4611 34.5841 32.9095 27.1367 42.0646 27.1367C49.8572 27.1367 56.5133 32.4347 58.2498 40.0204C58.3494 40.4543 58.0782 40.887 57.6432 40.9866C57.2083 41.084 56.7767 40.814 56.6771 40.3801C55.1099 33.5315 49.1002 28.7493 42.0646 28.7493C33.7993 28.7493 27.0747 35.4739 27.0747 43.7391C27.0747 46.0877 27.6026 48.3355 28.6419 50.4206C28.8411 50.819 28.6784 51.3038 28.28 51.5019C28.1649 51.5594 28.042 51.5871 27.9203 51.5871V51.5882Z" fill="white"/>
<path d="M42.0647 60.3426C40.3094 60.3426 38.5806 60.0703 36.9271 59.5324C36.5032 59.3952 36.2719 58.9392 36.4092 58.5164C36.5464 58.0925 37.0024 57.8612 37.4252 57.9985C38.9171 58.4832 40.4776 58.73 42.0636 58.73C47.1071 58.73 51.782 56.2166 54.571 52.0054C54.8167 51.6346 55.3181 51.5328 55.6888 51.7785C56.0607 52.0242 56.1614 52.5245 55.9157 52.8963C52.8279 57.5591 47.6494 60.3426 42.0636 60.3426H42.0647Z" fill="white"/>
<path d="M58.2698 60.7508C58.0639 60.7508 57.8569 60.6722 57.6998 60.515L55.0779 57.8931C54.7625 57.5788 54.7625 57.0675 55.0779 56.7532C55.3933 56.4377 55.9035 56.4377 56.2189 56.7532L58.8408 59.3751C59.1563 59.6894 59.1563 60.2007 58.8408 60.515C58.6837 60.6722 58.4767 60.7508 58.2709 60.7508H58.2698Z" fill="white"/>
<path d="M66.4683 72.0002C65.8352 72.0002 65.2022 71.759 64.7207 71.2775L57.0056 63.5623C56.5385 63.0953 56.2817 62.4755 56.2817 61.8148C56.2817 61.154 56.5385 60.5343 57.0056 60.0672L58.3912 58.6816C59.3552 57.7176 60.9224 57.7187 61.8863 58.6816L69.6015 66.3967C70.0686 66.8638 70.3253 67.4836 70.3253 68.1443C70.3253 68.805 70.0686 69.4248 69.6015 69.8919L68.2159 71.2775C67.7344 71.759 67.1014 72.0002 66.4683 72.0002ZM60.1388 59.5725C59.9185 59.5725 59.6994 59.6566 59.5323 59.8237L58.1466 61.2094C57.9839 61.3721 57.8954 61.5868 57.8954 61.8159C57.8954 62.045 57.985 62.2608 58.1466 62.4224L65.8618 70.1376C66.196 70.4718 66.7406 70.4718 67.0759 70.1376L68.4616 68.7519C68.6231 68.5892 68.7128 68.3745 68.7128 68.1443C68.7128 67.9141 68.6231 67.6994 68.4616 67.5378L60.7464 59.8226C60.5793 59.6555 60.359 59.5714 60.1399 59.5714L60.1388 59.5725Z" fill="white"/>
<path d="M24.0669 68.8124C23.8754 68.8124 23.6828 68.7448 23.529 68.6065L20.0969 65.5319C19.9376 65.3892 19.8413 65.1888 19.8302 64.9752C19.8191 64.7616 19.8922 64.5514 20.0361 64.392L45.8234 35.7138C46.1023 35.4039 46.5705 35.3574 46.9036 35.6053L62.4325 47.141L75.1181 32.3647L72.0402 29.7373C71.8056 29.537 71.706 29.2205 71.7834 28.9216C71.8609 28.6228 72.1022 28.3948 72.4043 28.334L83.8924 26.0153C84.1359 25.9666 84.3871 26.0319 84.5753 26.1924C84.7634 26.354 84.8675 26.5919 84.8575 26.8398L84.3672 38.5471C84.3539 38.8559 84.1669 39.1292 83.8836 39.2521C83.6002 39.376 83.2726 39.3262 83.038 39.1259L79.8506 36.4044L63.8668 55.0211C63.5912 55.3421 63.1142 55.3963 62.7745 55.1428L47.1582 43.543L24.6667 68.5445C24.5073 68.7216 24.2871 68.8113 24.0669 68.8113V68.8124ZM21.7748 64.869L24.006 66.8678L46.4509 41.9205C46.7287 41.6106 47.1969 41.5652 47.5311 41.812L63.133 53.4008L79.1511 34.7432C79.4411 34.4056 79.9491 34.3669 80.2866 34.6557L82.8255 36.8239L83.204 27.7994L74.3511 29.5868L76.7837 31.6631C76.9464 31.8025 77.0471 32.0006 77.0638 32.2142C77.0804 32.4278 77.0106 32.6392 76.8712 32.8019L63.1685 48.7613C62.8929 49.0823 62.4148 49.1365 62.0761 48.883L46.5328 37.3374L21.7748 64.869Z" fill="white"/>
</g>
<defs>
<filter id="filter0_bi_153_489" x="-40" y="-40" width="183" height="178" filterUnits="userSpaceOnUse" color-interpolation-filters="sRGB">
<feFlood flood-opacity="0" result="BackgroundImageFix"/>
<feGaussianBlur in="BackgroundImageFix" stdDeviation="20"/>
<feComposite in2="SourceAlpha" operator="in" result="effect1_backgroundBlur_153_489"/>
<feBlend mode="normal" in="SourceGraphic" in2="effect1_backgroundBlur_153_489" result="shape"/>
<feColorMatrix in="SourceAlpha" type="matrix" values="0 0 0 0 0 0 0 0 0 0 0 0 0 0 0 0 0 0 127 0" result="hardAlpha"/>
<feOffset/>
<feGaussianBlur stdDeviation="1.5"/>
<feComposite in2="hardAlpha" operator="arithmetic" k2="-1" k3="1"/>
<feColorMatrix type="matrix" values="0 0 0 0 1 0 0 0 0 1 0 0 0 0 1 0 0 0 0.08 0"/>
<feBlend mode="normal" in2="shape" result="effect2_innerShadow_153_489"/>
</filter>
<clipPath id="clip0_153_489">
<rect width="65.0306" height="46" fill="white" transform="translate(19.8276 26)"/>
</clipPath>
</defs>
</svg>
