<svg width="103" height="98" viewBox="0 0 103 98" fill="none" xmlns="http://www.w3.org/2000/svg">
<g filter="url(#filter0_bi_683_768)">
<rect width="103" height="98" rx="10" fill="#009CFF"/>
<rect x="0.25" y="0.25" width="102.5" height="97.5" rx="9.75" stroke="white" stroke-opacity="0.3" stroke-width="0.5"/>
<g clip-path="url(#clip0_683_768)">
<path d="M54.7322 71.8556C54.4086 71.8556 54.0861 71.8415 53.7624 71.8119L39.5483 70.5293C39.0746 70.4868 38.7261 70.0683 38.7686 69.5943C38.8112 69.1203 39.2305 68.7775 39.703 68.8141L53.9172 70.0967C55.9997 70.2858 58.1071 69.7468 59.8459 68.5813L68.8707 62.5302C69.4271 62.1566 69.596 61.4131 69.2547 60.8362C68.9534 60.3279 68.3179 60.1211 67.7757 60.3539L56.2336 65.3092C55.7965 65.496 55.291 65.2939 55.1031 64.8577C54.9153 64.4203 55.1185 63.9144 55.5544 63.7264L67.0965 58.7711C68.4313 58.199 69.9953 58.7096 70.7348 59.9591C71.5416 61.3221 71.1435 63.0798 69.8288 63.9617L60.8039 70.0128C59.0084 71.2161 56.8833 71.8568 54.7322 71.8568V71.8556Z" fill="white"/>
<path d="M54.256 66.1166C54.1284 66.1166 53.9997 66.1083 53.8709 66.0918L45.6163 65.0433C45.145 64.983 44.8107 64.5527 44.8709 64.0811C44.9311 63.6094 45.3611 63.2749 45.8324 63.3352L54.0871 64.3825C54.8124 64.4759 55.4739 63.9605 55.566 63.2359C55.6546 62.5396 55.1833 61.8954 54.4946 61.7677L42.3158 59.5123C41.4949 59.361 40.6609 59.4662 39.9037 59.8184L36.6576 61.328C36.2264 61.5289 35.7149 61.341 35.5141 60.9095C35.3133 60.478 35.5011 59.9662 35.9323 59.7652L39.1784 58.2557C40.2616 57.7521 41.4547 57.5997 42.6289 57.8183L54.8077 60.0738C56.3929 60.3669 57.4773 61.8516 57.2742 63.4522C57.0792 64.9889 55.7657 66.1154 54.256 66.1154V66.1166Z" fill="white"/>
<path d="M35.4706 74C35.1198 74 34.789 73.7837 34.6626 73.4338L30.0522 60.8031C29.9742 60.588 29.9836 60.3516 30.0805 60.1447C30.1774 59.9379 30.351 59.7771 30.566 59.6991L35.3477 57.9519C35.7943 57.7876 36.2892 58.0181 36.451 58.465L41.0615 71.0968C41.1395 71.3119 41.13 71.5483 41.0332 71.7552C40.9363 71.9621 40.7627 72.1228 40.5477 72.2008L35.7659 73.948C35.6679 73.9834 35.5686 74.0012 35.4706 74.0012V74ZM31.9646 61.0206L35.9844 72.0342L39.149 70.8781L35.1292 59.8646L31.9646 61.0206Z" fill="white"/>
<path d="M49.2701 55.7791C48.7953 55.7791 48.409 55.3937 48.409 54.9173V48.2586H42.5358V53.6478C42.5358 54.123 42.1507 54.5095 41.6746 54.5095C41.1986 54.5095 40.8135 54.1242 40.8135 53.6478V47.3969C40.8135 46.9217 41.1986 46.5352 41.6746 46.5352H49.2689C49.7438 46.5352 50.1301 46.9205 50.1301 47.3969V54.9162C50.1301 55.3914 49.745 55.7779 49.2689 55.7779L49.2701 55.7791Z" fill="white"/>
<path d="M56.8632 57.4636C56.3883 57.4636 56.002 57.0782 56.002 56.6019V41.0326H50.13V54.9174C50.13 55.3926 49.7449 55.7791 49.2689 55.7791C48.7928 55.7791 48.4077 55.3938 48.4077 54.9174V40.1708C48.4077 39.6956 48.7928 39.3091 49.2689 39.3091H56.8632C57.3381 39.3091 57.7243 39.6944 57.7243 40.1708V56.6019C57.7243 57.0771 57.3392 57.4636 56.8632 57.4636Z" fill="white"/>
<path d="M56.8642 57.4639C56.3894 57.4639 56.0031 57.0786 56.0031 56.6022V34.4534H53.1173C52.7806 34.4534 52.4747 34.2572 52.3341 33.951C52.1935 33.6449 52.2455 33.2843 52.4652 33.0302L60.0087 24.2851C60.3359 23.9056 60.9845 23.9056 61.3117 24.2851L68.8552 33.0302C69.0749 33.2855 69.1269 33.6449 68.9863 33.951C68.8458 34.2572 68.5398 34.4534 68.2032 34.4534H65.3173V55.6187C65.3173 56.0939 64.9322 56.4805 64.4562 56.4805C63.9801 56.4805 63.595 56.0951 63.595 55.6187V33.5928C63.595 33.1176 63.9801 32.7311 64.4562 32.7311H66.3226L60.6584 26.1658L54.9943 32.7311H56.8607C57.3355 32.7311 57.7218 33.1165 57.7218 33.5928V56.6034C57.7218 57.0786 57.3367 57.4651 56.8607 57.4651L56.8642 57.4639Z" fill="white"/>
</g>
</g>
<defs>
<filter id="filter0_bi_683_768" x="-40" y="-40" width="183" height="178" filterUnits="userSpaceOnUse" color-interpolation-filters="sRGB">
<feFlood flood-opacity="0" result="BackgroundImageFix"/>
<feGaussianBlur in="BackgroundImageFix" stdDeviation="20"/>
<feComposite in2="SourceAlpha" operator="in" result="effect1_backgroundBlur_683_768"/>
<feBlend mode="normal" in="SourceGraphic" in2="effect1_backgroundBlur_683_768" result="shape"/>
<feColorMatrix in="SourceAlpha" type="matrix" values="0 0 0 0 0 0 0 0 0 0 0 0 0 0 0 0 0 0 127 0" result="hardAlpha"/>
<feOffset/>
<feGaussianBlur stdDeviation="1.5"/>
<feComposite in2="hardAlpha" operator="arithmetic" k2="-1" k3="1"/>
<feColorMatrix type="matrix" values="0 0 0 0 1 0 0 0 0 1 0 0 0 0 1 0 0 0 0.08 0"/>
<feBlend mode="normal" in2="shape" result="effect2_innerShadow_683_768"/>
</filter>
<clipPath id="clip0_683_768">
<rect width="41.1504" height="50" fill="white" transform="translate(30 24)"/>
</clipPath>
</defs>
</svg>
