<svg width="27" height="27" viewBox="0 0 27 27" fill="none" xmlns="http://www.w3.org/2000/svg">
<path d="M9.39134 26.1875L7.09551 22.3208L2.74551 21.3542L3.16842 16.8833L0.208008 13.5L3.16842 10.1167L2.74551 5.64583L7.09551 4.67917L9.39134 0.8125L13.4997 2.56458L17.608 0.8125L19.9038 4.67917L24.2538 5.64583L23.8309 10.1167L26.7913 13.5L23.8309 16.8833L24.2538 21.3542L19.9038 22.3208L17.608 26.1875L13.4997 24.4354L9.39134 26.1875ZM10.4184 23.1062L13.4997 21.7771L16.6413 23.1062L18.333 20.2062L21.6559 19.4208L21.3538 16.0375L23.5893 13.5L21.3538 10.9021L21.6559 7.51875L18.333 6.79375L16.5809 3.89375L13.4997 5.22292L10.358 3.89375L8.66634 6.79375L5.34342 7.51875L5.64551 10.9021L3.41009 13.5L5.64551 16.0375L5.34342 19.4812L8.66634 20.2062L10.4184 23.1062ZM12.2309 17.7896L19.058 10.9625L17.3663 9.21042L12.2309 14.3458L9.63301 11.8083L7.94134 13.5L12.2309 17.7896Z" fill="white"/>
</svg>
